<?xml version="1.0" encoding="UTF-8"?>
<svg width="32" height="32" viewBox="0 0 32 32" xmlns="http://www.w3.org/2000/svg">
    <!-- Circle path with class -->
    <path class="circle-bg" d="M16,30 C8.268,30 2,23.73 2,16 C2,8.27 8.268,2 16,2 C23.732,2 30,8.27 30,16 C30,23.73 23.732,30 16,30 Z M16,0 C7.163,0 0,7.16 0,16 C0,24.84 7.163,32 16,32 C24.837,32 32,24.84 32,16 C32,7.16 24.837,0 16,0 Z"/>
    <!-- Arrow path with class -->
    <path class="arrow" d="M21.121,15.46 L17,19.59 L17,9 C17,8.45 16.553,8 16,8 C15.448,8 15,8.45 15,9 L15,19.59 L10.879,15.46 C10.488,15.07 9.855,15.07 9.465,15.46 C9.074,15.86 9.074,16.49 9.465,16.88 L15.121,22.54 C15.361,22.78 15.689,22.85 16,22.79 C16.311,22.85 16.639,22.78 16.879,22.54 L22.535,16.88 C22.926,16.49 22.926,15.86 22.535,15.46 C22.146,15.07 21.512,15.07 21.121,15.46 Z"/>
</svg>